<svg width="135" height="26" viewBox="0 0 135 26" fill="none" xmlns="http://www.w3.org/2000/svg">
<path fill-rule="evenodd" clip-rule="evenodd" d="M13.6321 0.688052L3.60807 4.00531C2.30584 4.43625 1.86612 4.69046 1.43338 5.0564C1.00063 5.42235 0.681173 5.86487 0.469898 6.39102C0.258623 6.91716 0.155533 7.41486 0.155533 8.78777V23.7661C0.155533 24.4336 0.224963 24.6756 0.35534 24.9196C0.485716 25.1637 0.677038 25.3552 0.92082 25.4857C1.1646 25.6162 1.40641 25.6857 2.07324 25.6857H30.8991C31.5659 25.6857 31.8077 25.6162 32.0515 25.4857C32.2953 25.3552 32.4866 25.1637 32.617 24.9196C32.7474 24.6756 32.8168 24.4336 32.8168 23.7661V8.75484C32.8168 7.39118 32.7157 6.89702 32.5077 6.37391C32.2998 5.85081 31.985 5.41007 31.5578 5.04383C31.1307 4.67758 30.6963 4.42185 29.4073 3.98053L19.8845 0.72019C18.5429 0.260842 18.0804 0.141504 17.5456 0.0618073C17.0108 -0.0178893 16.5133 -0.0204467 15.9777 0.053748C15.4421 0.127943 14.9784 0.24252 13.6321 0.688052ZM2.64876 23.19H10.9175V10.5599C10.9175 10.0077 11.3652 9.55994 11.9175 9.55994H21.0549C21.6071 9.55994 22.0549 10.0077 22.0549 10.5599V23.19H30.3236V8.75484C30.3236 7.78756 30.2885 7.54145 30.1912 7.29663C30.1326 7.14932 30.0562 7.04241 29.9359 6.93927C29.736 6.76787 29.5148 6.65496 28.6004 6.34192L19.0777 3.08157C17.9373 2.69116 17.5658 2.58802 17.1785 2.53029C16.8786 2.48561 16.6198 2.48428 16.3195 2.52588C15.9316 2.57962 15.559 2.67893 14.4147 3.05761L4.39068 6.37486C3.46809 6.68017 3.2448 6.79165 3.04237 6.96284C2.92043 7.06596 2.84278 7.17351 2.78324 7.32178C2.68442 7.5679 2.64876 7.81511 2.64876 8.78777V23.19Z" fill="white"/>
<path fill-rule="evenodd" clip-rule="evenodd" d="M38.8825 8.95581C38.8825 8.67322 39.0117 8.53193 39.2701 8.53193H47.7621C47.9148 8.53193 48.0234 8.57461 48.088 8.65998C48.1526 8.74534 48.1849 8.85278 48.1849 8.9823V10.5365C48.1849 10.6425 48.1482 10.7367 48.0748 10.8191C48.0014 10.9015 47.8913 10.9428 47.7445 10.9428H41.4812V13.6274H46.3086C46.426 13.6156 46.52 13.6406 46.5905 13.7024C46.661 13.7642 46.6962 13.8687 46.6962 14.0159V15.6143C46.6962 15.7203 46.6668 15.8145 46.6081 15.8969C46.5494 15.9793 46.4554 16.0205 46.3262 16.0205H41.4812V19.235H47.9735C48.138 19.235 48.2466 19.2703 48.2995 19.3409C48.3523 19.4116 48.3787 19.5205 48.3787 19.6677V21.2749C48.3787 21.5222 48.2495 21.6458 47.9911 21.6458H39.2701C39.1644 21.6458 39.0734 21.6164 38.997 21.5575C38.9207 21.4986 38.8825 21.4044 38.8825 21.2749V8.95581ZM57.1438 18.7051C57.2437 18.6404 57.3274 18.6006 57.3949 18.5859C57.4624 18.5712 57.5197 18.5638 57.5667 18.5638C57.6665 18.5697 57.7517 18.6227 57.8221 18.7228L58.0336 19.0142L58.659 19.9061C58.6884 19.9473 58.7119 19.99 58.7295 20.0342C58.7471 20.0783 58.7559 20.1181 58.7559 20.1534C58.7559 20.2476 58.7236 20.3315 58.659 20.4051C58.5944 20.4787 58.5092 20.5537 58.4035 20.6302C57.9044 20.9953 57.3655 21.2896 56.7871 21.5133C56.2086 21.7371 55.5729 21.8489 54.8799 21.8489C54.3572 21.8489 53.8507 21.7797 53.3603 21.6414C52.8699 21.503 52.4119 21.3088 51.9861 21.0585C51.5603 20.8083 51.1712 20.5081 50.8189 20.1578C50.4665 19.8075 50.1626 19.4175 49.9071 18.9877C49.6517 18.5579 49.4549 18.0958 49.3169 17.6013C49.1789 17.1067 49.1099 16.5916 49.1099 16.0558C49.1099 15.5201 49.1789 15.005 49.3169 14.5104C49.4549 14.0159 49.6517 13.5538 49.9071 13.124C50.1626 12.6942 50.4665 12.3042 50.8189 11.9539C51.1712 11.6036 51.5603 11.3034 51.9861 11.0531C52.4119 10.8029 52.8699 10.6087 53.3603 10.4703C53.8507 10.332 54.3572 10.2628 54.8799 10.2628C55.5318 10.2628 56.1484 10.3629 56.7298 10.563C57.3112 10.7632 57.828 11.034 58.2802 11.3755L58.2714 11.3666C58.3536 11.4491 58.4344 11.5212 58.5137 11.583C58.5929 11.6448 58.6326 11.7405 58.6326 11.87C58.6326 11.9053 58.6311 11.9465 58.6282 11.9936C58.6252 12.0407 58.6091 12.0849 58.5797 12.1261L57.8574 13.23C57.7399 13.4066 57.6107 13.4949 57.4698 13.4949C57.3699 13.4949 57.2584 13.4448 57.135 13.3448C56.8355 13.0916 56.4861 12.8856 56.0867 12.7266C55.6874 12.5676 55.2763 12.4882 54.8535 12.4882C54.3954 12.4882 53.9652 12.5838 53.5629 12.7752C53.1606 12.9665 52.8068 13.2255 52.5014 13.5523C52.196 13.879 51.9553 14.2588 51.7791 14.6915C51.6029 15.1242 51.5148 15.579 51.5148 16.0558C51.5148 16.5445 51.6029 17.0037 51.7791 17.4335C51.9553 17.8632 52.1946 18.2371 52.497 18.555C52.7995 18.8729 53.1533 19.1246 53.5585 19.31C53.9637 19.4955 54.3954 19.5882 54.8535 19.5882C55.3526 19.5882 55.7843 19.5014 56.1484 19.3277C56.5125 19.154 56.8443 18.9465 57.1438 18.7051ZM59.5399 16.0558C59.5399 15.5201 59.6089 15.0035 59.7469 14.506C59.885 14.0085 60.0802 13.5449 60.3327 13.1152C60.5853 12.6854 60.8877 12.2954 61.2401 11.9451C61.5925 11.5948 61.983 11.2945 62.4117 11.0443C62.8404 10.7941 63.3 10.5998 63.7903 10.4615C64.2807 10.3231 64.7931 10.254 65.3275 10.254C65.8561 10.254 66.367 10.3231 66.8603 10.4615C67.3536 10.5998 67.8132 10.7941 68.239 11.0443C68.6647 11.2945 69.0538 11.5948 69.4062 11.9451C69.7585 12.2954 70.061 12.6854 70.3135 13.1152C70.566 13.5449 70.7613 14.0085 70.8993 14.506C71.0373 15.0035 71.1063 15.5201 71.1063 16.0558C71.1063 16.5916 71.0373 17.1067 70.8993 17.6013C70.7613 18.0958 70.566 18.5565 70.3135 18.9833C70.061 19.4101 69.7585 19.8001 69.4062 20.1534C69.0538 20.5066 68.6647 20.8083 68.239 21.0585C67.8132 21.3088 67.3536 21.503 66.8603 21.6414C66.367 21.7797 65.8561 21.8489 65.3275 21.8489C64.7931 21.8489 64.2807 21.7797 63.7903 21.6414C63.3 21.503 62.8404 21.3088 62.4117 21.0585C61.983 20.8083 61.5925 20.5066 61.2401 20.1534C60.8877 19.8001 60.5853 19.4101 60.3327 18.9833C60.0802 18.5565 59.885 18.0958 59.7469 17.6013C59.6089 17.1067 59.5399 16.5916 59.5399 16.0558ZM62.0241 16.0558C62.0241 16.5268 62.1063 16.9728 62.2708 17.3937C62.4352 17.8147 62.6642 18.1811 62.9579 18.4932C63.2515 18.8052 63.5995 19.0525 64.0018 19.235C64.4041 19.4175 64.843 19.5087 65.3187 19.5087C65.7827 19.5087 66.2129 19.4175 66.6093 19.235C67.0057 19.0525 67.3478 18.8052 67.6355 18.4932C67.9233 18.1811 68.1479 17.8147 68.3094 17.3937C68.4709 16.9728 68.5517 16.5268 68.5517 16.0558C68.5517 15.5907 68.4709 15.1463 68.3094 14.7224C68.1479 14.2985 67.9233 13.9261 67.6355 13.6053C67.3478 13.2844 67.0057 13.0283 66.6093 12.837C66.2129 12.6456 65.7827 12.55 65.3187 12.55C64.843 12.55 64.4041 12.6456 64.0018 12.837C63.5995 13.0283 63.2515 13.2844 62.9579 13.6053C62.6642 13.9261 62.4352 14.2985 62.2708 14.7224C62.1063 15.1463 62.0241 15.5907 62.0241 16.0558ZM83.6711 9.48566C83.7416 9.52687 83.8003 9.57691 83.8473 9.63579C83.8943 9.69466 83.9178 9.76531 83.9178 9.84773C83.9178 9.91249 83.9001 9.98019 83.8649 10.0508L83.0104 11.5079C82.9106 11.6433 82.8049 11.711 82.6933 11.711C82.6581 11.711 82.6169 11.7037 82.57 11.689C82.523 11.6743 82.476 11.6522 82.429 11.6227C82.059 11.3578 81.6626 11.1518 81.2398 11.0046C80.8169 10.8574 80.3677 10.7838 79.892 10.7838C79.293 10.7838 78.7439 10.8971 78.2447 11.1238C77.7455 11.3505 77.3138 11.6581 76.9497 12.0466C76.5856 12.4352 76.3023 12.8914 76.0996 13.4154C75.897 13.9394 75.7957 14.5016 75.7957 15.1021C75.7957 15.6967 75.897 16.2545 76.0996 16.7756C76.3023 17.2966 76.5856 17.7514 76.9497 18.1399C77.3138 18.5285 77.7455 18.8346 78.2447 19.0584C78.7439 19.2821 79.293 19.3939 79.892 19.3939C80.3677 19.3939 80.8213 19.3203 81.253 19.1732C81.6846 19.026 82.0825 18.8199 82.4466 18.555C82.4936 18.5197 82.5421 18.4961 82.592 18.4843C82.6419 18.4726 82.6845 18.4637 82.7197 18.4578C82.8196 18.4578 82.9223 18.5226 83.028 18.6521L83.9001 20.1269C83.9354 20.1975 83.953 20.2623 83.953 20.3212C83.953 20.4036 83.928 20.4713 83.8781 20.5243C83.8282 20.5773 83.7709 20.6273 83.7063 20.6744C83.1543 21.0453 82.5597 21.3323 81.9225 21.5354C81.2853 21.7385 80.6143 21.8401 79.9096 21.8401C79.2871 21.8401 78.6895 21.7606 78.1169 21.6016C77.5443 21.4427 77.0085 21.216 76.5093 20.9217C76.0101 20.6273 75.5564 20.2755 75.1483 19.8664C74.7401 19.4572 74.3892 19.0039 74.0956 18.5064C73.8019 18.0089 73.5758 17.4732 73.4173 16.8992C73.2587 16.3252 73.1794 15.7262 73.1794 15.1021C73.1794 14.4781 73.2587 13.879 73.4173 13.305C73.5758 12.731 73.8019 12.1923 74.0956 11.689C74.3892 11.1856 74.7401 10.7279 75.1483 10.3158C75.5564 9.90366 76.0101 9.5519 76.5093 9.26047C77.0085 8.96905 77.5443 8.7424 78.1169 8.5805C78.6895 8.4186 79.2871 8.33765 79.9096 8.33765C80.6085 8.33765 81.2721 8.43626 81.9005 8.63348C82.5289 8.83071 83.1191 9.11476 83.6711 9.48566ZM96.6646 21.1248C96.6646 21.2307 96.6425 21.3176 96.5985 21.3853C96.5545 21.453 96.4972 21.506 96.4267 21.5442C96.3563 21.5825 96.2755 21.609 96.1845 21.6237C96.0934 21.6384 95.998 21.6458 95.8982 21.6458H94.797C94.6091 21.6458 94.4784 21.5958 94.405 21.4957C94.3316 21.3956 94.2773 21.269 94.2421 21.1159L94.1892 20.3653C93.9837 20.5714 93.7561 20.7642 93.5065 20.9437C93.2569 21.1233 92.9882 21.2793 92.7005 21.4118C92.4127 21.5442 92.1073 21.6473 91.7843 21.7209C91.4613 21.7945 91.1295 21.8312 90.7889 21.8312C90.2603 21.8312 89.7509 21.7621 89.2605 21.6237C88.7701 21.4854 88.3106 21.2911 87.8819 21.0409C87.4532 20.7907 87.0641 20.489 86.7147 20.1357C86.3652 19.7825 86.0657 19.391 85.8161 18.9612C85.5665 18.5314 85.3727 18.0693 85.2347 17.5748C85.0967 17.0802 85.0277 16.5651 85.0277 16.0294C85.0277 15.4936 85.0967 14.9785 85.2347 14.4839C85.3727 13.9894 85.5665 13.5273 85.8161 13.0975C86.0657 12.6677 86.3652 12.2777 86.7147 11.9274C87.0641 11.5771 87.4532 11.2769 87.8819 11.0267C88.3106 10.7764 88.7701 10.5822 89.2605 10.4438C89.7509 10.3055 90.2603 10.2363 90.7889 10.2363C91.1647 10.2363 91.523 10.276 91.8636 10.3555C92.2042 10.435 92.5228 10.5468 92.8194 10.6911C93.116 10.8353 93.3905 11.009 93.643 11.2121C93.8956 11.4152 94.1246 11.6375 94.3302 11.8788L94.4535 10.9339C94.4828 10.828 94.5107 10.7411 94.5372 10.6734C94.5636 10.6057 94.5959 10.5513 94.6341 10.51C94.6722 10.4688 94.7207 10.4409 94.7794 10.4262C94.8381 10.4114 94.9116 10.4041 94.9996 10.4041H95.8806C95.9745 10.4041 96.0685 10.4129 96.1624 10.4306C96.2564 10.4482 96.3416 10.4762 96.4179 10.5145C96.4943 10.5527 96.5545 10.6057 96.5985 10.6734C96.6425 10.7411 96.6646 10.825 96.6646 10.9251V21.1248ZM87.5031 16.0293C87.5031 16.5003 87.5853 16.9463 87.7497 17.3672C87.9142 17.7882 88.1432 18.1576 88.4369 18.4755C88.7305 18.7934 89.0755 19.0451 89.4719 19.2305C89.8683 19.416 90.3014 19.5087 90.7713 19.5087C91.247 19.5087 91.6918 19.416 92.1059 19.2305C92.5199 19.0451 92.8796 18.7934 93.185 18.4755C93.4904 18.1576 93.7311 17.7882 93.9073 17.3672C94.0835 16.9463 94.1716 16.5003 94.1716 16.0293C94.1716 15.5643 94.0835 15.1212 93.9073 14.7003C93.7311 14.2794 93.4904 13.9099 93.185 13.592C92.8796 13.2741 92.5199 13.021 92.1059 12.8326C91.6918 12.6442 91.247 12.55 90.7713 12.55C90.3014 12.55 89.8683 12.6442 89.4719 12.8326C89.0755 13.021 88.7305 13.2741 88.4369 13.592C88.1432 13.9099 87.9142 14.2794 87.7497 14.7003C87.5853 15.1212 87.5031 15.5643 87.5031 16.0293ZM100.726 21.1159C100.673 21.2926 100.615 21.425 100.554 21.5133C100.492 21.6016 100.373 21.6458 100.197 21.6458H98.8669C98.4969 21.6458 98.3119 21.4692 98.3119 21.1159V7.63117C98.3119 7.4781 98.3647 7.35153 98.4705 7.25144C98.5762 7.15136 98.6966 7.10132 98.8316 7.10132H100.285C100.461 7.10132 100.599 7.15283 100.699 7.25586C100.799 7.35889 100.849 7.48399 100.849 7.63117V11.6846C101.272 11.2489 101.758 10.9015 102.307 10.6425C102.856 10.3835 103.486 10.2539 104.196 10.2539C104.989 10.2539 105.728 10.4055 106.412 10.7087C107.096 11.0119 107.692 11.4255 108.2 11.9495C108.708 12.4734 109.106 13.0872 109.394 13.7907C109.682 14.4943 109.825 15.2493 109.825 16.0558C109.825 16.8565 109.682 17.6086 109.394 18.3121C109.106 19.0157 108.708 19.6294 108.2 20.1534C107.692 20.6773 107.096 21.0909 106.412 21.3941C105.728 21.6973 104.989 21.8489 104.196 21.8489C103.85 21.8489 103.518 21.8106 103.201 21.7341C102.884 21.6576 102.581 21.5531 102.294 21.4206C102.006 21.2881 101.737 21.1307 101.488 20.9482C101.238 20.7657 101.01 20.5714 100.805 20.3653L100.726 21.1159ZM107.35 16.0558C107.35 15.5907 107.268 15.1463 107.103 14.7224C106.939 14.2985 106.71 13.9261 106.416 13.6053C106.123 13.2844 105.776 13.0283 105.377 12.837C104.977 12.6456 104.546 12.55 104.082 12.55C103.612 12.55 103.17 12.6456 102.756 12.837C102.342 13.0283 101.981 13.2844 101.673 13.6053C101.364 13.9261 101.122 14.2985 100.946 14.7224C100.77 15.1463 100.682 15.5907 100.682 16.0558V16.1177C100.687 16.5828 100.781 17.0199 100.963 17.429C101.146 17.8382 101.389 18.1973 101.695 18.5064C102 18.8155 102.357 19.0598 102.765 19.2394C103.173 19.4189 103.612 19.5087 104.082 19.5087C104.546 19.5087 104.977 19.4175 105.377 19.235C105.776 19.0525 106.123 18.8052 106.416 18.4932C106.71 18.1811 106.939 17.8147 107.103 17.3937C107.268 16.9728 107.35 16.5268 107.35 16.0558ZM111.173 10.9693C111.173 10.8162 111.217 10.6881 111.305 10.5851C111.393 10.4821 111.523 10.4306 111.693 10.4306H113.155C113.22 10.4306 113.286 10.4438 113.354 10.4703C113.421 10.4968 113.481 10.5351 113.534 10.5851C113.587 10.6352 113.631 10.6926 113.666 10.7573C113.701 10.8221 113.719 10.8927 113.719 10.9693V21.1159C113.719 21.4692 113.534 21.6458 113.164 21.6458H111.702C111.349 21.6458 111.173 21.4692 111.173 21.1159V10.9693ZM111.173 7.066C111.173 6.71276 111.346 6.53615 111.693 6.53615H113.173C113.337 6.53615 113.469 6.5803 113.569 6.66861C113.669 6.75692 113.719 6.88938 113.719 7.066V8.3818C113.719 8.51721 113.672 8.64526 113.578 8.76595C113.484 8.88663 113.352 8.94698 113.182 8.94698H111.702C111.349 8.94698 111.173 8.75859 111.173 8.3818V7.066ZM115.93 10.9516C115.93 10.8692 115.965 10.7809 116.036 10.6867C116.106 10.5925 116.174 10.5336 116.238 10.51C116.285 10.4629 116.356 10.4379 116.45 10.435C116.544 10.432 116.632 10.4306 116.714 10.4306H117.604C117.774 10.4306 117.9 10.4865 117.983 10.5984C118.065 10.7102 118.121 10.8338 118.15 10.9693L118.247 11.9053C118.382 11.7052 118.548 11.5079 118.745 11.3137C118.941 11.1194 119.175 10.9457 119.445 10.7926C119.715 10.6396 120.023 10.5159 120.37 10.4217C120.716 10.3275 121.107 10.2804 121.542 10.2804C122.235 10.2804 122.851 10.4055 123.391 10.6558C123.932 10.906 124.387 11.2489 124.757 11.6846C125.127 12.1202 125.407 12.6324 125.598 13.2211C125.789 13.8099 125.884 14.4427 125.884 15.1198V21.01C125.884 21.2219 125.835 21.3809 125.735 21.4868C125.635 21.5928 125.491 21.6458 125.303 21.6458H123.964C123.729 21.6458 123.572 21.6016 123.493 21.5133C123.413 21.425 123.374 21.269 123.374 21.0453V15.1639C123.374 14.8519 123.321 14.5472 123.215 14.2499C123.11 13.9526 122.955 13.6862 122.753 13.4507C122.55 13.2152 122.299 13.0268 122 12.8856C121.7 12.7443 121.354 12.6736 120.96 12.6736C120.69 12.6736 120.41 12.7281 120.119 12.837C119.828 12.9459 119.562 13.1004 119.322 13.3006C119.081 13.5008 118.881 13.7436 118.723 14.0292C118.564 14.3147 118.482 14.637 118.476 14.9961V20.7186C118.476 20.8304 118.47 20.9423 118.458 21.0541C118.447 21.166 118.422 21.2661 118.383 21.3544C118.345 21.4427 118.291 21.5133 118.221 21.5663C118.15 21.6193 118.059 21.6458 117.947 21.6458H116.494C116.3 21.6458 116.158 21.6002 116.067 21.5089C115.976 21.4177 115.93 21.2867 115.93 21.1159V10.9516ZM128.439 18.4843C128.562 18.6786 128.718 18.8464 128.906 18.9877C129.094 19.129 129.286 19.2453 129.483 19.3365C129.68 19.4278 129.868 19.494 130.047 19.5352C130.226 19.5764 130.368 19.597 130.474 19.597C130.638 19.597 130.832 19.5794 131.055 19.544C131.279 19.5087 131.489 19.4454 131.685 19.3542C131.882 19.2629 132.049 19.1393 132.187 18.9833C132.325 18.8273 132.394 18.6286 132.394 18.3872C132.394 18.1517 132.34 17.9604 132.231 17.8132C132.123 17.666 131.976 17.5438 131.791 17.4467C131.606 17.3496 131.395 17.2686 131.157 17.2039C130.919 17.1391 130.668 17.0685 130.404 16.9919C129.787 16.8271 129.261 16.6284 128.827 16.3958C128.392 16.1633 128.035 15.8969 127.756 15.5966C127.477 15.2964 127.273 14.9667 127.144 14.6076C127.015 14.2485 126.95 13.857 126.95 13.4331C126.95 12.9562 127.044 12.5205 127.232 12.1261C127.42 11.7316 127.684 11.3931 128.025 11.1105C128.366 10.828 128.775 10.6087 129.254 10.4526C129.733 10.2966 130.263 10.2186 130.844 10.2186C131.255 10.2186 131.622 10.2554 131.945 10.329C132.268 10.4026 132.568 10.513 132.844 10.6602C133.12 10.8074 133.38 10.9928 133.623 11.2165C133.867 11.4402 134.115 11.7022 134.368 12.0025C134.456 12.1084 134.5 12.2115 134.5 12.3115C134.5 12.4175 134.441 12.5176 134.324 12.6118C134.236 12.6824 134.131 12.7708 134.011 12.8767C133.891 12.9827 133.772 13.0857 133.654 13.1858C133.537 13.2859 133.425 13.3713 133.319 13.4419C133.214 13.5125 133.126 13.5479 133.055 13.5479C132.926 13.5479 132.8 13.4713 132.676 13.3183C132.547 13.1652 132.418 13.0313 132.289 12.9165C132.16 12.8017 132.024 12.7075 131.884 12.6339C131.743 12.5603 131.59 12.5044 131.425 12.4661C131.261 12.4278 131.082 12.4087 130.888 12.4087C130.73 12.4087 130.564 12.4322 130.39 12.4793C130.217 12.5264 130.059 12.5971 129.915 12.6913C129.771 12.7855 129.65 12.8988 129.554 13.0313C129.457 13.1637 129.408 13.3124 129.408 13.4772C129.408 13.6656 129.468 13.826 129.589 13.9585C129.709 14.091 129.862 14.2058 130.047 14.3029C130.232 14.4001 130.433 14.481 130.65 14.5458C130.868 14.6105 131.07 14.6694 131.258 14.7224C131.798 14.8754 132.295 15.0521 132.747 15.2522C133.199 15.4524 133.588 15.6952 133.914 15.9808C134.24 16.2663 134.494 16.6019 134.676 16.9875C134.858 17.3731 134.949 17.825 134.949 18.343C134.949 18.8906 134.84 19.3807 134.623 19.8134C134.406 20.2461 134.105 20.6126 133.72 20.9128C133.336 21.2131 132.88 21.4427 132.355 21.6016C131.829 21.7606 131.258 21.8401 130.641 21.8401C130.271 21.8401 129.896 21.8003 129.514 21.7209C129.132 21.6414 128.767 21.5177 128.417 21.35C128.068 21.1822 127.745 20.9673 127.448 20.7053C127.152 20.4433 126.903 20.1328 126.704 19.7736C126.616 19.6265 126.572 19.494 126.572 19.3763C126.572 19.2997 126.591 19.2335 126.629 19.1776C126.667 19.1216 126.718 19.0672 126.783 19.0142L127.77 18.2547C127.858 18.2017 127.937 18.1753 128.007 18.1753C128.09 18.1753 128.163 18.2032 128.228 18.2592C128.292 18.3151 128.363 18.3901 128.439 18.4843Z" fill="white"/>
</svg>
